<svg width="15" height="12" viewBox="0 0 15 12" fill="none" xmlns="http://www.w3.org/2000/svg">
<path d="M12.1635 11.9692H3.75719C3.01402 11.9692 2.3013 11.674 1.7758 11.1485C1.2503 10.623 0.955078 9.91024 0.955078 9.16708V3.56285C0.955078 2.81969 1.2503 2.10696 1.7758 1.58146C2.3013 1.05596 3.01402 0.760742 3.75719 0.760742H12.1635C12.9067 0.760742 13.6194 1.05596 14.1449 1.58146C14.6704 2.10696 14.9656 2.81969 14.9656 3.56285V9.16708C14.9656 9.91024 14.6704 10.623 14.1449 11.1485C13.6194 11.674 12.9067 11.9692 12.1635 11.9692ZM3.75719 2.1618C3.38561 2.1618 3.02924 2.30941 2.76649 2.57216C2.50374 2.83491 2.35613 3.19127 2.35613 3.56285V9.16708C2.35613 9.53866 2.50374 9.89502 2.76649 10.1578C3.02924 10.4205 3.38561 10.5681 3.75719 10.5681H12.1635C12.5351 10.5681 12.8915 10.4205 13.1542 10.1578C13.417 9.89502 13.5646 9.53866 13.5646 9.16708V3.56285C13.5646 3.19127 13.417 2.83491 13.1542 2.57216C12.8915 2.30941 12.5351 2.1618 12.1635 2.1618H3.75719Z" fill="#C38CEE"/>
<path d="M7.96012 8.52268C7.88385 8.52531 7.80778 8.51343 7.73595 8.48766L1.4312 6.36506C1.3438 6.33562 1.26306 6.28926 1.19359 6.22861C1.12411 6.16797 1.06726 6.09424 1.02628 6.01163C0.985294 5.92901 0.960985 5.83914 0.954738 5.74713C0.948491 5.65512 0.960427 5.56278 0.989866 5.47539C1.0193 5.38799 1.06567 5.30725 1.12631 5.23777C1.18695 5.1683 1.26068 5.11145 1.3433 5.07046C1.42591 5.02948 1.51579 5.00517 1.6078 4.99893C1.6998 4.99268 1.79214 5.00462 1.87954 5.03406L7.96012 7.06559L14.0407 5.0971C14.132 5.06237 14.2295 5.04711 14.327 5.05229C14.4245 5.05746 14.5198 5.08297 14.6069 5.12716C14.694 5.17136 14.7708 5.23327 14.8326 5.30892C14.8943 5.38457 14.9396 5.47229 14.9654 5.56646C15.0229 5.74296 15.0079 5.93505 14.9239 6.10055C14.8398 6.26605 14.6935 6.39141 14.5171 6.44912L8.21231 8.48766C8.13181 8.5176 8.04573 8.52955 7.96012 8.52268Z" fill="#C38CEE"/>
<path d="M2.2998 11.3808C2.20761 11.3814 2.11622 11.3637 2.03087 11.3288C1.94552 11.294 1.86789 11.2426 1.80243 11.1777C1.73677 11.1126 1.68466 11.0351 1.64909 10.9497C1.61353 10.8644 1.59521 10.7728 1.59521 10.6803C1.59521 10.5878 1.61353 10.4963 1.64909 10.4109C1.68466 10.3255 1.73677 10.2481 1.80243 10.1829L5.36812 6.62426C5.50213 6.50949 5.67451 6.44952 5.85082 6.45633C6.02712 6.46314 6.19437 6.53623 6.31913 6.66099C6.44389 6.78575 6.51698 6.95299 6.52379 7.1293C6.5306 7.30561 6.47063 7.47799 6.35586 7.612L2.79718 11.1777C2.73172 11.2426 2.65409 11.294 2.56874 11.3288C2.48339 11.3637 2.392 11.3814 2.2998 11.3808Z" fill="#C38CEE"/>
<path d="M13.6202 11.3807C13.528 11.3813 13.4366 11.3636 13.3512 11.3287C13.2659 11.2939 13.1882 11.2425 13.1228 11.1776L9.57812 7.62592C9.46335 7.49191 9.40338 7.31952 9.41019 7.14322C9.417 6.96691 9.49009 6.79967 9.61485 6.67491C9.73961 6.55015 9.90685 6.47706 10.0832 6.47025C10.2595 6.46344 10.4318 6.52341 10.5659 6.63817L14.1175 10.1828C14.1832 10.248 14.2353 10.3254 14.2709 10.4108C14.3064 10.4962 14.3248 10.5877 14.3248 10.6802C14.3248 10.7727 14.3064 10.8643 14.2709 10.9496C14.2353 11.035 14.1832 11.1125 14.1175 11.1776C14.0521 11.2425 13.9744 11.2939 13.8891 11.3287C13.8037 11.3636 13.7124 11.3813 13.6202 11.3807Z" fill="#C38CEE"/>
</svg>
