<svg width="26" height="22" viewBox="0 0 26 22" fill="none" xmlns="http://www.w3.org/2000/svg">
<path fill-rule="evenodd" clip-rule="evenodd" d="M14.939 4C16.28 4 17.57 4.53 18.519 5.481C19.469 6.43 20 7.71 20 9.05V16.95C20 19.74 17.73 22 14.939 22H5.06C2.269 22 0 19.74 0 16.95V9.05C0 6.26 2.259 4 5.06 4H14.939ZM16.53 10.54L16.61 10.46C16.849 10.17 16.849 9.75 16.599 9.46C16.46 9.311 16.269 9.22 16.07 9.2C15.86 9.189 15.66 9.26 15.509 9.4L11 13C10.42 13.481 9.589 13.481 9 13L4.5 9.4C4.189 9.17 3.759 9.2 3.5 9.47C3.23 9.74 3.2 10.17 3.429 10.47L3.56 10.6L8.11 14.15C8.67 14.59 9.349 14.83 10.06 14.83C10.769 14.83 11.46 14.59 12.019 14.15L16.53 10.54Z" fill="white"/>
<circle cx="23.9996" cy="2" r="2" fill="#A977E1"/>
</svg>
