<svg width="13" height="14" viewBox="0 0 13 14" fill="none" xmlns="http://www.w3.org/2000/svg">
<path fill-rule="evenodd" clip-rule="evenodd" d="M10.7232 3.77721V4.85054C12.0404 5.22687 13 6.31827 13 7.62188V11.0777C13 12.6916 11.5383 14 9.73639 14H3.26438C1.46163 14 0 12.6916 0 11.0777V7.62188C0 6.31827 0.960433 5.22687 2.27675 4.85054V3.77721C2.28452 1.69035 4.17275 0 6.48838 0C8.83503 0 10.7232 1.69035 10.7232 3.77721ZM6.5039 1.21733C8.08126 1.21733 9.36344 2.3651 9.36344 3.77721V4.69959H3.63658V3.76329C3.64435 2.35815 4.92648 1.21733 6.5039 1.21733ZM7.1799 10.1184C7.1799 10.4593 6.87685 10.7306 6.4961 10.7306C6.12315 10.7306 5.8201 10.4593 5.8201 10.1184V8.57416C5.8201 8.24026 6.12315 7.96901 6.4961 7.96901C6.87685 7.96901 7.1799 8.24026 7.1799 8.57416V10.1184Z" fill="#C38CEE"/>
</svg>
