<svg width="673" height="412" viewBox="0 0 673 412" fill="none" xmlns="http://www.w3.org/2000/svg">
<path d="M672.519 412H0V407.3H672.829L672.519 412Z" fill="#2B0753"/>
<path d="M587.567 137.387L570.54 171.096L519.626 194.242C514.189 203.431 496.912 204.134 495.656 198.192C494.246 191.526 516.636 180.797 516.636 180.797L559.221 151.993L562.947 127.197L587.567 137.387Z" fill="#D6AB99"/>
<path d="M585.559 363.606L588.699 388.727L570.485 389.984L568.602 363.606H585.559Z" fill="#D6AB99"/>
<path d="M583.046 384.96C584.675 383.238 586.177 381.401 587.541 379.463C590.151 375.851 592.467 394.38 592.467 394.38C592.467 394.38 594.979 401.917 594.351 405.685C593.723 409.453 579.278 409.453 576.766 408.825C574.254 408.197 561.693 408.825 561.693 408.825H542.852C526.523 401.289 542.852 396.264 542.852 396.264C547.876 395.636 564.833 379.935 564.833 379.935L568.601 373.027C571.114 372.399 573.626 381.819 573.626 381.819L583.046 384.96Z" fill="#1E1D27"/>
<path d="M632.661 363.92L635.802 389.041L617.589 390.298L615.704 363.92H632.661Z" fill="#D6AB99"/>
<path d="M630.149 385.274C631.778 383.552 633.28 381.715 634.644 379.777C637.254 376.165 639.57 394.694 639.57 394.694C639.57 394.694 642.082 401.603 641.454 405.371C640.826 409.139 626.381 409.139 623.869 408.511C621.357 407.883 608.796 409.139 608.796 409.139H589.955C573.626 401.603 589.955 396.578 589.955 396.578C594.979 395.95 611.936 380.249 611.936 380.249L615.704 373.341C618.217 372.713 620.729 382.133 620.729 382.133L630.149 385.274Z" fill="#1E1D27"/>
<path d="M611.937 201.885C614.449 205.025 613.193 215.702 613.193 215.702C613.193 215.702 617.589 250.245 615.705 253.385C613.821 256.525 616.961 259.037 618.845 263.433C620.729 267.83 622.613 278.507 622.613 278.507C633.29 287.299 632.662 327.494 632.662 327.494L636.43 363.292C635.174 367.06 617.589 367.689 615.077 367.06C612.565 366.432 605.028 309.909 605.028 309.909L588.071 277.878C588.071 277.878 589.327 363.292 589.327 367.06C589.327 370.829 572.37 368.945 568.602 368.945C564.833 368.945 564.833 306.14 564.833 306.14L561.065 289.811L540.968 215.074V206.282L544.108 201.885C544.108 201.885 609.424 198.745 611.937 201.885Z" fill="#2F2E41"/>
<path d="M584.302 59.3195C595.055 59.3195 603.772 50.6028 603.772 39.8502C603.772 29.0976 595.055 20.3809 584.302 20.3809C573.55 20.3809 564.833 29.0976 564.833 39.8502C564.833 50.6028 573.55 59.3195 584.302 59.3195Z" fill="#D6AB99"/>
<path d="M574.568 48.9568C578.514 57.7447 576.177 70.0191 568.287 83.4992L600.317 68.4262L595.293 64.0299L596.549 51.469L574.568 48.9568Z" fill="#D6AB99"/>
<path d="M574.568 69.0543C570.374 71.5479 567.864 76.1295 566.424 80.7918C563.758 89.4233 562.152 98.3475 561.644 107.367L560.123 134.371L541.282 205.968C557.611 219.784 567.032 216.644 589.013 205.34C610.994 194.035 613.507 209.108 613.507 209.108C613.507 209.108 615.391 208.48 613.507 206.596C611.622 204.711 613.507 206.596 615.391 204.711C617.275 202.827 615.391 204.711 614.763 202.827C614.135 200.943 614.763 202.199 615.391 201.571C616.019 200.943 612.879 195.291 612.879 195.291L617.903 148.188L624.183 81.6151C616.647 72.1945 595.293 64.0299 595.293 64.0299L575.824 77.8468C569.544 80.359 574.568 70.3103 574.568 70.3103V69.0543Z" fill="#6B15CA"/>
<path d="M634.546 121.496L637.058 159.178L605.028 205.025C605.028 215.702 599.376 218.214 599.376 218.214C597.235 214.797 595.346 211.229 593.723 207.538C590.583 200.629 595.608 194.977 595.608 194.977L617.589 148.502L608.168 125.264L634.546 121.496Z" fill="#D6AB99"/>
<path d="M623.869 81.929C634.546 85.6973 636.43 126.52 636.43 126.52C623.869 119.612 608.796 130.916 608.796 130.916C608.796 130.916 605.656 120.24 601.888 106.423C600.75 102.536 600.614 98.425 601.492 94.4718C602.371 90.5186 604.235 86.852 606.912 83.8132C606.912 83.8132 613.192 78.1608 623.869 81.929Z" fill="#6B15CA"/>
<path d="M602.202 45.8166C599.723 43.8337 596.342 47.438 596.342 47.438L594.359 29.5925C594.359 29.5925 581.966 31.0797 574.035 29.0968C566.104 27.114 564.864 36.2846 564.864 36.2846C564.456 32.5812 564.373 28.849 564.617 25.1312C565.112 20.6698 571.556 16.2084 582.958 13.2342C594.359 10.2599 600.307 23.1483 600.307 23.1483C608.239 27.114 604.68 47.7994 602.202 45.8166Z" fill="#2F2E41"/>
<path d="M31.646 307.874C33.7865 316.371 52.0389 335.481 70.8726 353.424C41.8294 281.688 58.3793 203.177 58.3793 203.177C52.9866 234.012 126.895 389.18 126.895 389.18L110.061 399.107L104.374 407.109C47.3687 380.927 31.646 307.874 31.646 307.874Z" fill="white"/>
<path d="M499.091 0H261V47.0077H499.091V0Z" fill="#E6E6E6"/>
<path d="M266.076 41.9319H494.016V5.07574H266.076V41.9319Z" fill="white"/>
<path d="M286.03 37.2399C293.785 37.2399 300.071 30.9534 300.071 23.1986C300.071 15.4438 293.785 9.15735 286.03 9.15735C278.275 9.15735 271.989 15.4438 271.989 23.1986C271.989 30.9534 278.275 37.2399 286.03 37.2399Z" fill="#6C63FF"/>
<path d="M458.188 17.7042H319.607V20.7567H458.188V17.7042Z" fill="#6C63FF"/>
<path d="M427.698 25.6406H319.607V28.693H427.698V25.6406Z" fill="#6C63FF"/>
<path d="M499.091 74.522H261V121.53H499.091V74.522Z" fill="#E6E6E6"/>
<path d="M266.076 116.618H494.016V79.7617H266.076V116.618Z" fill="white"/>
<path d="M286.03 112.372C293.785 112.372 300.071 106.086 300.071 98.3311C300.071 90.5763 293.785 84.2898 286.03 84.2898C278.275 84.2898 271.989 90.5763 271.989 98.3311C271.989 106.086 278.275 112.372 286.03 112.372Z" fill="#CCCCCC"/>
<path d="M458.188 92.8367H319.607V95.8892H458.188V92.8367Z" fill="#CCCCCC"/>
<path d="M458.188 100.773H319.607V103.826H458.188V100.773Z" fill="#CCCCCC"/>
<path d="M499.091 148.799H261V195.807H499.091V148.799Z" fill="#E6E6E6"/>
<path d="M266.076 190.731H494.016V153.875H266.076V190.731Z" fill="white"/>
<path d="M286.03 186.65C293.785 186.65 300.071 180.363 300.071 172.609C300.071 164.854 293.785 158.567 286.03 158.567C278.275 158.567 271.989 164.854 271.989 172.609C271.989 180.363 278.275 186.65 286.03 186.65Z" fill="#CCCCCC"/>
<path d="M458.188 167.114H319.607V170.167H458.188V167.114Z" fill="#CCCCCC"/>
<path d="M458.188 175.051H319.607V178.103H458.188V175.051Z" fill="#CCCCCC"/>
<path d="M109.171 135.598C109.171 135.598 105.888 156.233 119.489 154.357C119.489 154.357 173.421 142.164 176.235 144.978C179.049 147.791 196.542 148.749 195.63 136.886C194.714 124.983 177.173 131.846 177.173 131.846C177.173 131.846 149.972 135.598 144.344 132.784C138.717 129.97 122.772 130.908 122.772 130.908L109.171 135.598Z" fill="#D6AB99"/>
<path d="M150.328 202.89L142.849 273.844C142.849 273.844 140.504 301.983 133.47 308.079C133.47 308.079 133.47 316.99 131.125 319.804L127.842 356.853C127.842 356.853 132.532 370.453 132.063 372.798C131.594 375.143 133.939 382.646 133.47 383.584C133.001 384.522 110.959 383.584 110.959 383.584L115.649 308.079L130.187 203.029L150.328 202.89Z" fill="#2F2E41"/>
<path d="M109.241 379.749C109.241 379.749 99.4059 404.551 104.537 407.544C109.669 410.538 163.549 408.399 163.549 408.399C163.549 408.399 172.529 402.84 162.266 398.992C162.266 398.992 153.714 398.564 148.155 395.143C142.596 391.722 136.181 385.308 136.181 385.308C136.181 385.308 135.754 375.9 132.333 378.038C131.309 378.713 130.438 379.594 129.775 380.625C129.113 381.656 128.673 382.814 128.484 384.025L109.241 379.749Z" fill="#1E1D27"/>
<path d="M94.0763 376.386C94.0763 376.386 83.2899 403.587 88.9176 406.869C94.5453 410.152 153.636 407.807 153.636 407.807C153.636 407.807 163.485 401.711 152.229 397.49C152.229 397.49 142.85 397.021 136.753 393.269C130.656 389.517 123.622 382.483 123.622 382.483C123.622 382.483 123.153 372.165 119.401 374.51C118.279 375.25 117.323 376.216 116.596 377.346C115.869 378.477 115.387 379.747 115.18 381.076L94.0763 376.386Z" fill="#1E1D27"/>
<path d="M137.691 201.927C137.691 201.927 132.532 250.231 130.188 260.549C128.713 267.343 127.772 274.243 127.374 281.184C127.374 281.184 126.905 296.191 122.684 300.412C121.449 301.635 120.479 303.098 119.833 304.712C119.188 306.325 118.881 308.054 118.932 309.791C118.932 309.791 114.711 357.158 117.056 362.786C119.401 368.413 122.584 375.725 120.24 379.476C117.895 383.228 91.2625 380.607 91.2625 377.793C91.2625 374.979 91.2625 372.634 89.8556 371.227C88.4487 369.82 89.8556 360.91 89.8556 360.91C89.8556 360.91 84.2279 319.171 89.3866 306.978C94.5454 294.784 96.8903 261.487 96.8903 261.487C96.8903 261.487 93.1385 223.5 88.4487 217.403C83.7589 211.307 89.3866 189.734 89.3866 189.734L137.691 201.927Z" fill="#2F2E41"/>
<path d="M124.487 51.9207C125.032 53.1627 126.337 53.8542 127.526 54.5087C134.411 58.3021 140.175 63.8018 145.853 69.2381C144.436 64.4365 144.738 59.291 146.707 54.688C147.385 53.118 148.273 51.4304 147.789 49.7903C147.311 48.618 146.479 47.6235 145.41 46.945C143.093 45.153 140.672 43.5008 138.158 41.997C136.402 40.9464 132.792 38.1497 130.777 38.454C130.671 41.1767 130.616 43.6109 129.423 46.1555C129.141 46.7591 124.696 52.3955 124.487 51.9207Z" fill="#D6AB99"/>
<path d="M148.478 57.9514C159.097 57.9514 167.706 49.3428 167.706 38.7234C167.706 28.1041 159.097 19.4954 148.478 19.4954C137.858 19.4954 129.25 28.1041 129.25 38.7234C129.25 49.3428 137.858 57.9514 148.478 57.9514Z" fill="#D6AB99"/>
<path d="M149.415 84.214C149.415 84.214 152.698 67.7999 143.319 62.1722C133.939 56.5445 123.153 49.9788 123.153 49.9788C123.153 49.9788 119.87 49.5099 118.463 56.5445C118.463 56.5445 91.7313 61.7032 88.9174 87.0279C86.1036 112.353 90.7933 149.402 90.7933 149.402C90.7933 149.402 86.5726 181.761 81.4138 199.113C81.4138 199.113 77.1931 202.865 95.9521 197.237C114.711 191.609 147.539 213.182 147.539 213.182C147.539 213.182 150.822 209.899 150.822 207.555C150.822 205.21 157.857 133.925 159.264 127.36C160.671 120.794 153.636 85.152 149.415 84.214Z" fill="white"/>
<path d="M143.946 40.7042C145.101 40.064 146.396 39.719 147.717 39.6999C149.039 39.6801 150.33 39.2955 151.447 38.5884C153.263 37.194 153.397 34.4992 154.725 32.6343C156.649 29.9344 160.487 29.6094 163.799 29.7445C165.825 29.8271 168.007 29.9482 169.713 28.8524C171.465 27.7274 172.258 25.6079 172.849 23.6118C173.547 21.2514 173.999 18.3647 172.268 16.6141C171.067 15.3985 169.17 15.158 167.835 14.0904C167.112 13.5126 157.562 11.1924 148.596 9.10615C144.133 8.06917 139.444 8.70354 135.417 10.8893C131.389 13.0751 128.302 16.6607 126.739 20.9683C124.669 26.6609 122.895 32.0098 123.078 33.1652C123.954 38.6946 128.844 43.0898 129.181 48.678C129.503 47.1349 130.202 45.6956 131.216 44.4893C132.231 43.283 133.529 42.3474 134.994 41.7663C135.361 41.5867 135.779 41.536 136.178 41.6226C136.664 41.7779 136.948 42.2633 137.255 42.6709C138.058 43.7389 140.582 45.3593 142.012 44.6016C143.292 43.9236 142.336 41.7956 143.946 40.7042Z" fill="#3F3D56"/>
<path d="M152.739 141.796C152.336 142.19 152.106 142.728 152.098 143.292C152.09 143.855 152.304 144.399 152.695 144.805L166.216 158.799C166.413 159.003 166.648 159.165 166.908 159.277C167.168 159.389 167.447 159.448 167.73 159.451C168.013 159.453 168.294 159.4 168.556 159.293C168.818 159.186 169.056 159.028 169.256 158.829L210.514 117.749C210.74 117.525 210.912 117.253 211.019 116.953C211.126 116.654 211.164 116.334 211.131 116.018C211.099 115.701 210.996 115.396 210.83 115.125C210.664 114.853 210.44 114.622 210.173 114.449L193.95 103.882C193.544 103.615 193.059 103.495 192.576 103.543C192.092 103.59 191.64 103.802 191.294 104.143L152.739 141.796Z" fill="#3F3D56"/>
<path d="M210.797 115.073C210.715 115.199 210.62 115.315 210.514 115.421L169.353 157.277C169.152 157.476 168.914 157.634 168.652 157.741C168.39 157.848 168.109 157.901 167.827 157.898C167.544 157.896 167.264 157.837 167.004 157.725C166.744 157.613 166.509 157.451 166.312 157.247L152.501 142.671C152.406 142.574 152.322 142.467 152.248 142.353C152.018 142.748 151.936 143.212 152.018 143.662C152.1 144.112 152.34 144.517 152.695 144.805L166.215 158.799C166.412 159.003 166.647 159.165 166.907 159.277C167.167 159.389 167.447 159.448 167.73 159.451C168.012 159.453 168.293 159.4 168.555 159.293C168.817 159.186 169.055 159.028 169.256 158.829L210.514 117.749C210.861 117.404 211.079 116.949 211.13 116.461C211.182 115.974 211.064 115.484 210.797 115.073H210.797Z" fill="#6C63FF"/>
<path d="M206.977 115.579L205.298 114.509C205.475 114.824 205.54 115.19 205.482 115.546C205.425 115.903 205.248 116.23 204.981 116.473C204.714 116.717 204.372 116.863 204.012 116.888C203.651 116.912 203.293 116.814 202.995 116.609L192.131 109.14C191.884 108.97 191.689 108.735 191.57 108.46C191.45 108.185 191.41 107.883 191.454 107.586C191.498 107.29 191.625 107.012 191.819 106.784C192.013 106.556 192.268 106.387 192.553 106.297L191.688 105.746C191.576 105.674 191.443 105.643 191.31 105.658C191.178 105.673 191.055 105.733 190.961 105.827L154.412 141.746C154.357 141.801 154.314 141.867 154.285 141.939C154.257 142.011 154.242 142.088 154.244 142.165C154.245 142.243 154.262 142.319 154.293 142.39C154.325 142.461 154.37 142.525 154.426 142.578L167.7 155.512C167.81 155.616 167.957 155.673 168.108 155.671C168.259 155.669 168.403 155.608 168.511 155.501L207.075 116.482C207.137 116.421 207.184 116.346 207.213 116.264C207.242 116.182 207.252 116.094 207.243 116.007C207.233 115.92 207.204 115.837 207.158 115.763C207.112 115.689 207.05 115.626 206.977 115.579Z" fill="white"/>
<path d="M164.793 133.815L176.005 144.386L202.674 118.037L189.139 109.228L164.793 133.815Z" fill="#E6E6E6"/>
<path d="M201.638 124.54C201.712 124.611 201.81 124.65 201.912 124.65C202.014 124.65 202.113 124.611 202.187 124.54L204.519 122.208C204.591 122.135 204.632 122.036 204.632 121.933C204.632 121.831 204.591 121.732 204.519 121.659C204.445 121.589 204.347 121.549 204.244 121.549C204.142 121.549 204.044 121.589 203.97 121.659L201.638 123.991C201.565 124.064 201.524 124.163 201.524 124.266C201.524 124.369 201.565 124.467 201.638 124.54Z" fill="#3F3D56"/>
<path d="M197.709 128.469C197.782 128.541 197.881 128.582 197.984 128.582C198.086 128.582 198.185 128.541 198.258 128.469L200.59 126.137C200.663 126.064 200.703 125.965 200.703 125.862C200.703 125.76 200.662 125.661 200.589 125.589C200.517 125.516 200.418 125.475 200.316 125.475C200.213 125.475 200.114 125.515 200.041 125.588L197.709 127.92C197.637 127.993 197.596 128.091 197.596 128.194C197.596 128.297 197.637 128.396 197.709 128.469Z" fill="#3F3D56"/>
<path d="M165.052 145.508C166.499 145.508 167.671 144.335 167.671 142.889C167.671 141.442 166.499 140.27 165.052 140.27C163.606 140.27 162.433 141.442 162.433 142.889C162.433 144.335 163.606 145.508 165.052 145.508Z" fill="#6C63FF"/>
<path d="M95.4832 128.298C95.4832 128.298 92.2004 148.933 105.801 147.057C105.801 147.057 159.733 134.863 162.547 137.677C165.361 140.491 182.854 141.449 181.942 129.586C181.026 117.683 163.485 124.546 163.485 124.546C163.485 124.546 136.284 128.298 130.656 125.484C125.029 122.67 109.084 123.608 109.084 123.608L95.4832 128.298Z" fill="#D6AB99"/>
<path d="M114.711 63.1101C114.711 63.1101 93.6069 65.455 93.6069 95.9384V134.863L119.401 124.077C119.401 124.077 130.187 98.7523 129.249 91.7176C128.311 84.683 128.78 64.048 114.711 63.1101Z" fill="white"/>
</svg>
