<svg width="577" height="367" viewBox="0 0 577 367" fill="none" xmlns="http://www.w3.org/2000/svg">
<path d="M288.5 367C447.834 367 577 359.389 577 350C577 340.611 447.834 333 288.5 333C129.166 333 0 340.611 0 350C0 359.389 129.166 367 288.5 367Z" fill="#2D0957"/>
<path d="M444.538 0.0735168H132.223V127.48H444.538V0.0735168Z" fill="#360370"/>
<path d="M177.109 47.504H153.824C152.235 38.318 152.235 28.9273 153.824 19.7413H177.109C174.486 28.8096 174.486 38.4356 177.109 47.504Z" fill="#FF6584"/>
<path d="M225.605 39.7278H248.89C250.479 30.5418 250.479 21.1511 248.89 11.9651H225.605C228.229 21.0335 228.229 30.6595 225.605 39.7278Z" fill="#C38CEE"/>
<path d="M371.675 52.802C383.979 52.9313 396.271 52.5514 408.55 51.6623L407.734 50.5919C405.724 55.6847 405.78 61.0526 406.046 66.4401C406.113 67.79 406.536 69.6102 406.262 70.9472C405.918 72.6285 404.409 72.2266 402.908 72.2751C399.601 72.382 396.294 72.4588 392.987 72.5056C389.863 72.5497 386.739 72.5671 383.614 72.5578C382.144 72.5532 380.674 72.5427 379.204 72.5265C377.478 72.5072 375.515 73.0085 375.069 71.0089C374.784 69.728 375.071 68.0433 375.072 66.726L375.076 61.9077L375.082 52.2712C375.074 52.052 374.982 51.8443 374.824 51.6919C374.667 51.5395 374.456 51.4543 374.236 51.4543C374.017 51.4543 373.806 51.5395 373.649 51.6919C373.491 51.8443 373.398 52.052 373.391 52.2712L373.383 64.0492L373.379 69.4028C373.379 70.4662 373.158 71.7509 373.555 72.7605C374.468 75.0827 378.415 74.2115 380.307 74.2289C384.166 74.2644 388.025 74.2585 391.884 74.2113C395.743 74.1646 399.601 74.077 403.459 73.9485C405.12 73.8933 407.42 74.2712 407.924 72.2217C408.277 70.7849 407.865 68.9114 407.79 67.4452C407.704 65.7719 407.611 64.0983 407.589 62.4227C407.537 58.5098 407.92 54.7032 409.365 51.0415C409.399 50.916 409.403 50.7844 409.378 50.6568C409.353 50.5293 409.299 50.4092 409.221 50.3058C409.142 50.2024 409.04 50.1184 408.924 50.0604C408.808 50.0024 408.68 49.9718 408.55 49.9711C396.277 50.86 383.986 51.2399 371.675 51.1107C371.456 51.1183 371.248 51.2107 371.096 51.3685C370.944 51.5263 370.858 51.737 370.858 51.9563C370.858 52.1757 370.944 52.3864 371.096 52.5442C371.248 52.702 371.456 52.7944 371.675 52.802L371.675 52.802Z" fill="#F1F1F1"/>
<path d="M375.181 53.721C380.448 55.5849 385.583 57.8024 390.551 60.3582C395.008 62.6617 400.843 65.1779 403.91 69.2948C404.553 70.1577 406.022 69.3154 405.371 68.4412C402.238 64.2372 396.846 61.7635 392.316 59.374C386.936 56.5503 381.36 54.1161 375.631 52.0902C374.604 51.7244 374.161 53.3579 375.181 53.721Z" fill="#F1F1F1"/>
<path d="M408.262 50.7091C402.673 53.099 397.939 57.7035 392.944 61.1154C387.538 64.8084 381.971 68.2452 376.243 71.4259C375.293 71.9566 376.145 73.418 377.097 72.8863C382.812 69.6946 388.379 66.2577 393.798 62.5757C398.791 59.1645 403.528 54.5587 409.116 52.1695C410.113 51.7428 409.253 50.2855 408.262 50.7091Z" fill="#F1F1F1"/>
<path d="M262.249 55.9577C273.649 56.1311 285.049 56.0857 296.449 55.8214C297.536 55.7961 297.54 54.1048 296.449 54.1301C285.05 54.3944 273.65 54.4399 262.249 54.2665C262.03 54.2741 261.822 54.3665 261.67 54.5243C261.517 54.682 261.432 54.8928 261.432 55.1121C261.432 55.3314 261.517 55.5422 261.67 55.6999C261.822 55.8577 262.03 55.9501 262.249 55.9577Z" fill="#F1F1F1"/>
<path d="M263.208 63.6254C274.928 63.8124 286.648 63.7621 298.367 63.4745C299.454 63.4478 299.458 61.7564 298.367 61.7832C286.649 62.0709 274.93 62.1212 263.208 61.9342C262.989 61.9418 262.782 62.0343 262.629 62.192C262.477 62.3498 262.392 62.5605 262.392 62.7798C262.392 62.9991 262.477 63.2099 262.629 63.3676C262.782 63.5254 262.989 63.6178 263.208 63.6254Z" fill="#F1F1F1"/>
<path d="M261.925 71.9046L295.166 70.361C296.25 70.3107 296.256 68.6191 295.166 68.6698L261.925 70.2134C260.841 70.2637 260.835 71.9552 261.925 71.9046Z" fill="#F1F1F1"/>
<path d="M313.705 63.8634H345.345C345.565 63.8558 345.772 63.7634 345.925 63.6056C346.077 63.4479 346.162 63.2371 346.162 63.0178C346.162 62.7984 346.077 62.5877 345.925 62.4299C345.772 62.2722 345.565 62.1797 345.345 62.1721H313.705C313.485 62.1797 313.278 62.2722 313.125 62.4299C312.973 62.5877 312.888 62.7984 312.888 63.0178C312.888 63.2371 312.973 63.4479 313.125 63.6056C313.278 63.7634 313.485 63.8558 313.705 63.8634Z" fill="#F1F1F1"/>
<path d="M343.96 54.1943L348.903 58.7066C349.468 59.2226 351.023 60.288 351.375 60.9627C352.101 62.3577 351.321 62.0395 350.076 62.5229C347.018 63.7398 344.2 65.4896 341.753 67.691C340.935 68.412 342.135 69.6043 342.949 68.8869C345.181 66.8812 347.745 65.2795 350.526 64.1537C351.523 63.7592 353.415 63.5282 353.889 62.3402C354.469 60.8864 352.622 59.8135 351.747 59.0148L345.155 52.9984C344.353 52.2659 343.154 53.4587 343.96 54.1943Z" fill="#F1F1F1"/>
<path d="M267.171 120.215H290.456C292.045 111.029 292.045 101.638 290.456 92.4521H267.171C269.795 101.52 269.795 111.146 267.171 120.215Z" fill="#C38CEE"/>
<path d="M170.207 99.3561H193.492C195.081 90.1701 195.081 80.7795 193.492 71.5935H170.207C172.83 80.6618 172.83 90.2878 170.207 99.3561Z" fill="#C38CEE"/>
<path d="M317.345 38.4715H340.629C342.218 29.2855 342.218 19.8949 340.629 10.7089H317.345C319.968 19.7772 319.968 29.4032 317.345 38.4715Z" fill="#C38CEE"/>
<path d="M548.945 321.307L551.979 333.447L538.626 337.089L537.411 324.342L548.945 321.307Z" fill="#FBBEBE"/>
<path d="M500.383 336.482V348.016L487.028 350.444L484.601 344.374L489.457 334.054L500.383 336.482Z" fill="#FBBEBE"/>
<path d="M527.092 210.83L525.271 227.219L526.485 258.784C526.725 258.779 526.964 258.823 527.188 258.912C527.411 259.002 527.614 259.136 527.784 259.306C527.954 259.476 528.088 259.679 528.178 259.902C528.267 260.126 528.311 260.365 528.306 260.605C528.306 262.426 526.485 261.819 528.306 263.033C529.283 263.697 530.296 264.305 531.341 264.854L550.766 323.735C550.766 323.735 545.909 329.805 536.804 327.984L534.983 321.914C534.983 321.914 531.341 318.272 531.341 316.451C531.341 314.63 532.555 314.023 531.341 312.202C530.127 310.381 511.916 273.353 511.916 273.353L503.418 258.177L500.99 278.816C500.99 278.816 505.846 304.918 504.632 317.058C503.418 329.198 500.99 341.946 500.99 341.946L486.422 339.518C486.356 337.559 485.723 335.661 484.601 334.054C482.78 331.626 480.352 332.233 482.78 330.412C485.208 328.591 488.243 330.412 485.815 327.984C483.387 325.556 483.387 323.128 483.387 323.128V321.307L479.745 274.567L473.067 213.258L527.092 210.83Z" fill="#2F2E41"/>
<path d="M485.815 100.353C494.867 100.353 502.205 93.015 502.205 83.9633C502.205 74.9117 494.867 67.5739 485.815 67.5739C476.764 67.5739 469.426 74.9117 469.426 83.9633C469.426 93.015 476.764 100.353 485.815 100.353Z" fill="#FBBEBE"/>
<path d="M500.08 84.2665L506.757 100.656L490.975 112.189L481.262 95.1934L500.08 84.2665Z" fill="#FBBEBE"/>
<path d="M500.99 96.7107L507.06 93.6756L510.702 102.174C510.702 102.174 534.376 109.458 532.555 142.844C530.734 176.23 526.485 188.977 526.485 188.977C526.485 188.977 536.804 210.83 530.734 213.258C524.664 215.686 473.067 224.791 471.853 216.293C470.639 207.795 476.102 158.019 476.102 158.019C476.102 158.019 474.281 122.205 489.457 114.921L486.422 108.244L500.99 96.7107Z" fill="white"/>
<path d="M467.604 214.472C467.604 214.472 453.643 229.04 461.534 232.682C469.425 236.325 474.282 216.293 474.282 216.293L467.604 214.472Z" fill="#FBBEBE"/>
<path d="M496.134 344.981L502.812 342.553C502.812 342.553 510.096 358.942 504.026 358.942H488.243C488.243 358.942 479.138 355.907 474.282 355.907C469.426 355.907 460.32 346.802 466.998 342.553C473.675 338.303 482.173 339.517 482.173 339.517L484.601 334.054L487.636 342.553C487.636 342.553 491.278 348.623 496.134 344.981Z" fill="#250F40"/>
<path d="M545.302 331.626C545.302 331.626 549.103 329.228 551.148 330.123C553.193 331.019 554.407 340.732 554.407 340.732C554.407 340.732 560.477 348.016 547.123 349.23C533.769 350.444 530.734 348.016 529.52 344.374C528.306 340.732 530.734 337.089 530.734 337.089L534.376 335.875C534.376 335.875 538.625 332.84 537.411 331.626C536.197 330.412 537.411 327.984 537.411 327.984C537.411 327.984 541.66 336.482 545.302 331.626Z" fill="#250F40"/>
<path d="M491.421 83.7007C491.354 83.1703 491.234 82.6479 491.064 82.1412C490.183 80.2931 486.746 80.8325 486.134 78.879C486.014 78.4967 486.039 78.0808 485.922 77.6977C485.622 76.7209 484.473 76.2365 483.453 76.2834C482.44 76.4231 481.447 76.6788 480.493 77.0453C478.092 77.7268 475.537 77.4667 473.055 77.201C471.949 77.1638 470.864 76.8814 469.88 76.3743C468.94 75.7961 468.263 74.6321 468.605 73.583C468.933 72.5771 470.034 72.0244 470.529 71.0892C471.314 69.6043 470.354 67.6865 470.991 66.1321C472.014 63.6386 475.885 64.1393 477.851 62.2962C478.328 61.8489 478.672 61.277 479.13 60.8094C480.487 59.4221 482.63 59.1535 484.562 59.3449C486.493 59.5363 488.391 60.1035 490.332 60.0691C492.172 60.0366 494.101 59.4761 495.797 60.192C496.794 60.7023 497.67 61.4216 498.364 62.301L502.714 67.0713C503.311 67.6344 503.771 68.3272 504.058 69.0962C504.32 70.0102 504.079 70.9915 504.191 71.9357C504.445 74.089 506.461 75.7154 506.733 77.8665C506.788 78.5337 506.756 79.2051 506.637 79.8639L506.028 84.3561C505.997 84.7942 505.881 85.2219 505.685 85.6149C505.507 85.9176 505.24 86.1567 505.04 86.4452C504.477 87.2598 504.528 88.3366 504.248 89.2866C503.969 90.2364 502.965 91.1765 502.087 90.7187C501.514 90.42 501.135 87.9499 500.44 87.3086C499.471 86.4154 498.964 86.5255 497.768 86.5406C495.373 86.5709 492.187 86.7763 491.421 83.7007Z" fill="#2F2E41"/>
<path d="M494.314 119.17C494.314 119.17 512.524 126.455 507.061 142.844C501.598 159.233 487.029 209.616 487.029 209.616L478.531 213.865L476.103 220.542L464.57 216.293L466.391 207.188C466.391 207.188 466.998 206.581 466.998 204.153C466.998 201.725 464.57 201.118 467.605 201.118C470.64 201.118 470.64 198.083 470.64 198.083L481.566 130.097C481.566 130.097 481.566 118.563 494.314 119.17Z" fill="white"/>
<path opacity="0.1" d="M507.971 146.182L489.154 210.526L481.262 218.417L485.815 210.223L507.971 146.182Z" fill="black"/>
<path d="M56.4263 107.656L75.5021 110.836L81.8608 80.6317L66.4942 74.2731L56.4263 107.656Z" fill="#2F2E41"/>
<path d="M82.6556 101.563C91.7277 101.563 99.0822 94.2081 99.0822 85.136C99.0822 76.0638 91.7277 68.7094 82.6556 68.7094C73.5834 68.7094 66.229 76.0638 66.229 85.136C66.229 94.2081 73.5834 101.563 82.6556 101.563Z" fill="#D6AB99"/>
<path d="M75.5024 94.4091C75.5024 94.4091 77.0921 114.545 64.9046 116.135C52.7171 117.724 75.5024 153.757 81.3312 153.227C87.16 152.697 97.7578 114.015 97.7578 114.015C97.7578 114.015 83.9807 104.477 88.7497 95.9987L75.5024 94.4091Z" fill="#D6AB99"/>
<path d="M55.1016 167.799C55.1016 167.799 57.2211 183.165 63.5798 183.165C69.9385 183.165 59.3407 165.679 59.3407 165.679L55.1016 167.799Z" fill="#D6AB99"/>
<path d="M147.832 183.166C147.832 183.166 163.728 196.413 161.609 200.652C159.489 204.891 145.712 195.883 144.652 185.285L147.832 183.166Z" fill="#D6AB99"/>
<path d="M51.9222 234.035L41.8543 271.657L30.7266 317.228H41.3244C41.3244 317.228 45.0336 302.921 51.9222 295.502C51.9222 295.502 58.8107 283.845 58.8107 275.896L75.2373 237.214L51.9222 234.035Z" fill="#D6AB99"/>
<path d="M95.373 236.155L98.5524 271.657C98.5524 271.657 98.0225 297.092 98.5524 302.921C99.0823 308.749 98.5524 317.228 98.5524 317.228H108.09C108.09 317.228 117.099 285.964 114.449 269.008L118.158 229.266L95.373 236.155Z" fill="#D6AB99"/>
<path d="M82.6555 138.655C82.6555 138.655 68.379 127.341 72.073 111.537C72.073 111.537 57.7507 112.16 51.9219 117.989C46.0931 123.818 53.5115 143.424 53.5115 143.424C53.5115 143.424 66.2289 164.619 64.1093 174.157C61.9898 183.695 39.2045 234.035 46.623 237.214C54.0414 240.394 99.082 251.521 121.867 232.975C121.867 232.975 127.696 180.516 104.381 163.56V150.312C104.381 150.312 108.62 146.603 106.5 137.065C106.5 137.065 115.509 120.639 110.21 117.459C104.911 114.28 92.7388 109.621 92.7388 109.621C92.7388 109.621 93.7832 133.356 82.6555 138.655Z" fill="#6B15CA"/>
<path d="M55.1019 117.989C55.1019 117.989 48.2133 116.929 41.3247 126.997C34.4362 137.065 16.4199 152.962 24.8982 160.91C33.3764 168.858 56.1616 174.157 56.1616 174.157L61.4605 164.619L38.6753 153.492L57.7513 139.185L55.1019 117.989Z" fill="#6B15CA"/>
<path d="M107.561 117.989C107.561 117.989 114.979 117.989 118.158 126.997C121.338 136.005 139.884 166.739 139.884 166.739L150.482 183.166L143.063 191.644L122.397 168.329L102.792 136.005L107.561 117.989Z" fill="#6B15CA"/>
<path d="M43.4443 316.168H28.6074L25.4281 342.132C25.4281 342.132 16.9498 355.91 29.6672 354.32C42.3845 352.73 38.1454 338.423 38.1454 338.423L41.3247 333.124L42.3845 344.252L43.4443 343.722V331.535C43.4443 331.535 49.2731 326.236 43.4443 316.168Z" fill="#250F40"/>
<path d="M110.74 316.168L96.9627 315.108L94.3132 344.782C94.3132 344.782 92.7235 355.91 102.262 354.32C111.8 352.73 108.62 343.722 108.62 343.722V327.296L110.74 316.168Z" fill="#250F40"/>
<path d="M70.7332 68.4444C70.7332 68.4444 63.0136 71.0177 62.6216 81.1798C62.5818 82.8051 62.762 84.4283 63.1574 86.0053C63.5921 87.8475 63.8716 91.8113 60.5029 96.9911C58.2472 100.411 56.1865 103.956 54.3308 107.608L54.3066 107.656L62.7849 108.716L64.5876 94.6628C65.4616 87.8494 67.3341 81.2018 70.1447 74.934L70.2033 74.8031C70.2033 74.8031 73.9126 81.6917 81.331 81.6917L78.6816 79.0422C78.6816 79.0422 90.3391 83.8112 94.5783 83.8112C94.5783 83.8112 97.7576 85.9308 94.5783 89.1101C91.3989 92.2895 85.0402 99.7079 88.7495 105.537C92.4587 111.366 89.2794 112.955 89.2794 112.955L95.1081 109.776L97.7576 108.186V110.306L111.535 108.716C111.535 108.716 115.244 108.186 107.296 99.178C107.296 99.178 105.197 95.6799 106.115 92.6628C106.87 90.3698 107.068 87.9303 106.693 85.5456C104.913 75.6119 97.9266 55.8624 70.7332 68.4444Z" fill="#2F2E41"/>
</svg>
