<svg width="297" height="216" viewBox="0 0 297 216" fill="none" xmlns="http://www.w3.org/2000/svg">
<path d="M137.624 160.555H1.58121C1.16202 160.554 0.760148 160.387 0.463732 160.091C0.167316 159.794 0.000546802 159.392 0 158.972V32.5055C0.000549946 32.0859 0.167323 31.6836 0.463738 31.3869C0.760153 31.0902 1.16202 30.9232 1.58121 30.9227H137.624C138.043 30.9232 138.445 31.0902 138.741 31.3869C139.038 31.6836 139.205 32.0859 139.205 32.5055V158.972C139.205 159.391 139.038 159.794 138.742 160.091C138.445 160.387 138.043 160.554 137.624 160.555V160.555Z" fill="#D2D2D2"/>
<path d="M159.069 179.467H23.0265C22.6073 179.466 22.2055 179.299 21.909 179.003C21.6126 178.706 21.4459 178.304 21.4453 177.884V51.4173C21.4459 50.9977 21.6126 50.5954 21.909 50.2987C22.2055 50.002 22.6073 49.8351 23.0265 49.8345H159.069C159.488 49.8351 159.89 50.002 160.187 50.2987C160.483 50.5954 160.65 50.9977 160.65 51.4173V177.884C160.65 178.303 160.483 178.706 160.187 179.002C159.89 179.299 159.488 179.466 159.069 179.467V179.467Z" fill="white"/>
<path d="M159.069 179.467H23.0265C22.6073 179.466 22.2055 179.299 21.909 179.003C21.6126 178.706 21.4459 178.304 21.4453 177.884V51.4173C21.4459 50.9977 21.6126 50.5954 21.909 50.2987C22.2055 50.002 22.6073 49.8351 23.0265 49.8345H159.069C159.488 49.8351 159.89 50.002 160.187 50.2987C160.483 50.5954 160.65 50.9977 160.65 51.4173V177.884C160.65 178.303 160.483 178.706 160.187 179.002C159.89 179.299 159.488 179.466 159.069 179.467V179.467ZM23.0265 50.4664C22.7753 50.467 22.5345 50.5671 22.3569 50.7449C22.1792 50.9228 22.0792 51.1638 22.0786 51.4153V177.884C22.0792 178.135 22.1792 178.376 22.3569 178.554C22.5345 178.732 22.7753 178.832 23.0265 178.833H159.069C159.321 178.832 159.561 178.732 159.739 178.554C159.917 178.376 160.017 178.135 160.017 177.884V51.4173C160.017 51.1659 159.917 50.9248 159.739 50.747C159.561 50.5692 159.321 50.469 159.069 50.4685L23.0265 50.4664Z" fill="#E6E6E6"/>
<path d="M133.743 106.529H48.3527C47.9335 106.528 47.5316 106.361 47.2351 106.065C46.9387 105.768 46.772 105.366 46.7715 104.946V67.4345C46.772 67.0148 46.9387 66.6125 47.2351 66.3158C47.5316 66.0191 47.9335 65.8522 48.3527 65.8517H133.743C134.162 65.8522 134.564 66.0191 134.86 66.3158C135.157 66.6125 135.323 67.0148 135.324 67.4345V104.946C135.323 105.366 135.157 105.768 134.86 106.065C134.564 106.361 134.162 106.528 133.743 106.529Z" fill="#6E2AC3"/>
<path d="M61.5953 81.8916C61.311 81.8921 61.0385 82.0056 60.8376 82.2071C60.6367 82.4085 60.5239 82.6815 60.5239 82.9662C60.5239 83.2508 60.6367 83.5238 60.8376 83.7253C61.0385 83.9267 61.311 84.0402 61.5953 84.0407H120.5C120.784 84.0402 121.057 83.9267 121.258 83.7253C121.458 83.5238 121.571 83.2508 121.571 82.9662C121.571 82.6815 121.458 82.4085 121.258 82.2071C121.057 82.0056 120.784 81.8921 120.5 81.8916H61.5953Z" fill="white"/>
<path d="M61.5953 88.3396C61.311 88.3401 61.0385 88.4536 60.8376 88.6551C60.6367 88.8565 60.5239 89.1295 60.5239 89.4142C60.5239 89.6988 60.6367 89.9718 60.8376 90.1733C61.0385 90.3748 61.311 90.4882 61.5953 90.4888H91.6673C91.9517 90.4882 92.2242 90.3748 92.4251 90.1733C92.6259 89.9718 92.7387 89.6988 92.7387 89.4142C92.7387 89.1295 92.6259 88.8565 92.4251 88.6551C92.2242 88.4536 91.9517 88.3401 91.6673 88.3396H61.5953Z" fill="white"/>
<path d="M35.8243 120.355C35.54 120.355 35.2675 120.469 35.0666 120.67C34.8657 120.872 34.7529 121.145 34.7529 121.429C34.7529 121.714 34.8657 121.987 35.0666 122.189C35.2675 122.39 35.54 122.503 35.8243 122.504H146.271C146.555 122.503 146.828 122.39 147.028 122.189C147.229 121.987 147.342 121.714 147.342 121.429C147.342 121.145 147.229 120.872 147.028 120.67C146.828 120.469 146.555 120.355 146.271 120.355H35.8243Z" fill="#E6E6E6"/>
<path d="M35.8243 126.803C35.54 126.804 35.2675 126.917 35.0666 127.118C34.8657 127.32 34.7529 127.593 34.7529 127.878C34.7529 128.162 34.8657 128.435 35.0666 128.637C35.2675 128.838 35.54 128.952 35.8243 128.952H117.438C117.722 128.952 117.995 128.838 118.196 128.637C118.397 128.435 118.51 128.162 118.51 127.878C118.51 127.593 118.397 127.32 118.196 127.118C117.995 126.917 117.722 126.804 117.438 126.803H35.8243Z" fill="#E6E6E6"/>
<path d="M35.8243 133.105C35.54 133.106 35.2675 133.219 35.0666 133.421C34.8657 133.622 34.7529 133.895 34.7529 134.18C34.7529 134.464 34.8657 134.737 35.0666 134.939C35.2675 135.14 35.54 135.254 35.8243 135.254H146.271C146.555 135.254 146.828 135.14 147.028 134.939C147.229 134.737 147.342 134.464 147.342 134.18C147.342 133.895 147.229 133.622 147.028 133.421C146.828 133.219 146.555 133.106 146.271 133.105H35.8243Z" fill="#E6E6E6"/>
<path d="M35.8243 139.553C35.54 139.554 35.2675 139.667 35.0666 139.869C34.8657 140.07 34.7529 140.343 34.7529 140.628C34.7529 140.912 34.8657 141.185 35.0666 141.387C35.2675 141.588 35.54 141.702 35.8243 141.702H117.438C117.722 141.702 117.995 141.588 118.196 141.387C118.397 141.185 118.51 140.912 118.51 140.628C118.51 140.343 118.397 140.07 118.196 139.869C117.995 139.667 117.722 139.554 117.438 139.553H35.8243Z" fill="#E6E6E6"/>
<path d="M145.588 164.641H113.221C112.802 164.64 112.4 164.473 112.103 164.177C111.807 163.88 111.64 163.478 111.64 163.058V157.867C111.64 157.447 111.807 157.045 112.103 156.748C112.4 156.452 112.802 156.285 113.221 156.284H145.588C146.007 156.285 146.409 156.452 146.705 156.748C147.002 157.045 147.169 157.447 147.169 157.867V163.058C147.169 163.478 147.002 163.88 146.705 164.177C146.409 164.473 146.007 164.64 145.588 164.641Z" fill="#6E2AC3"/>
<path d="M215.157 51.6531L160.472 79.6541L160.833 80.361L215.518 52.36L215.157 51.6531Z" fill="#E5E5E5"/>
<path d="M160.831 153.106L160.47 153.813L215.16 181.805L215.521 181.098L160.831 153.106Z" fill="#E5E5E5"/>
<path d="M297 41.6912C296.998 49.3743 294.877 56.9077 290.871 63.4612C286.865 70.0146 281.129 75.3337 274.295 78.832C273.942 79.0147 273.585 79.1934 273.228 79.3601C273.018 79.4634 272.808 79.5587 272.598 79.654C272.082 79.8882 271.558 80.1145 271.031 80.325C269.154 81.0931 267.222 81.7183 265.251 82.1951C264.974 82.2666 264.688 82.3301 264.407 82.3937C263.697 82.5525 262.981 82.6901 262.261 82.8066C258.328 83.4659 254.32 83.5595 250.361 83.0845C249.54 82.9893 248.725 82.8675 247.917 82.7192C247.533 82.6478 247.148 82.5723 246.767 82.4929C246.716 82.481 246.664 82.4691 246.612 82.4612C245.246 82.1732 243.895 81.8127 242.567 81.3812C241.853 81.1509 241.142 80.9047 240.448 80.6347C240.088 80.4957 239.731 80.3528 239.377 80.2059C239.203 80.1344 239.028 80.059 238.858 79.9835C231.955 77.0046 225.985 72.2111 221.583 66.1113C217.181 60.0116 214.51 52.833 213.854 45.3367C213.197 37.8405 214.579 30.3062 217.854 23.5326C221.128 16.7591 226.173 10.9989 232.453 6.86291C238.733 2.72689 246.014 0.369232 253.525 0.0399465C261.035 -0.289339 268.494 1.42203 275.111 4.99257C281.728 8.5631 287.257 13.8597 291.111 20.3207C294.964 26.7817 296.999 34.1662 297 41.6912Z" fill="#F1F1F1"/>
<path d="M297 174.309C296.991 181.027 295.365 187.643 292.26 193.599C289.155 199.554 284.662 204.674 279.162 208.523C279.059 208.595 278.956 208.666 278.853 208.734C278.25 209.151 277.635 209.552 277.005 209.929C276.604 210.175 276.195 210.413 275.787 210.648C275.295 210.926 274.799 211.192 274.295 211.45C274.18 211.509 274.065 211.569 273.946 211.624C273.526 211.839 273.102 212.045 272.669 212.24C272.645 212.252 272.622 212.26 272.598 212.272C272.455 212.335 272.308 212.403 272.158 212.466C271.225 212.879 270.273 213.26 269.302 213.602C269.234 213.63 269.163 213.653 269.091 213.677C266.866 214.46 264.576 215.044 262.249 215.424C261.809 215.504 261.365 215.567 260.92 215.627C260.849 215.639 260.773 215.651 260.702 215.659C260.095 215.738 259.484 215.802 258.87 215.853C258.798 215.861 258.727 215.865 258.655 215.869C258.195 215.909 257.731 215.937 257.263 215.956C256.628 215.984 255.994 216 255.351 216C254.451 216 253.556 215.972 252.666 215.917C251.892 215.865 251.123 215.798 250.361 215.702C249.897 215.647 249.433 215.583 248.977 215.512C248.473 215.436 247.969 215.349 247.473 215.254C247.228 215.206 246.982 215.154 246.736 215.103C246.696 215.095 246.652 215.087 246.613 215.079C246.216 214.995 245.823 214.908 245.435 214.809C243.893 214.437 242.375 213.972 240.889 213.419C240.381 213.229 239.877 213.03 239.378 212.824C239.223 212.76 239.068 212.693 238.918 212.625C238.644 212.51 238.374 212.387 238.104 212.264C237.902 212.172 237.7 212.077 237.497 211.982C237.069 211.783 236.649 211.573 236.228 211.354C235.891 211.184 235.554 211.001 235.225 210.818C235.217 210.814 235.213 210.81 235.205 210.807C228.776 207.251 223.401 202.057 219.624 195.752C215.848 189.446 213.804 182.253 213.7 174.902C213.596 167.55 215.436 160.302 219.033 153.892C222.63 147.482 227.856 142.138 234.182 138.402C240.507 134.666 247.707 132.671 255.052 132.619C262.396 132.566 269.624 134.459 276.002 138.105C282.38 141.75 287.682 147.019 291.369 153.378C295.057 159.736 297 166.957 297 174.309Z" fill="#F1F1F1"/>
<path d="M255.097 34.3416C252.102 34.3452 249.231 35.5377 247.113 37.6577C244.995 39.7776 243.804 42.6518 243.8 45.6499V54.0874C243.801 54.4901 243.962 54.8759 244.246 55.1603C244.531 55.4447 244.917 55.6043 245.32 55.6041H264.875C265.277 55.6043 265.663 55.4447 265.948 55.1604C266.233 54.876 266.393 54.4901 266.394 54.0874V45.6499C266.39 42.6519 265.199 39.7779 263.081 37.658C260.963 35.5382 258.092 34.3455 255.097 34.3416Z" fill="#2F2E41"/>
<path d="M249.326 69.8426L248.243 64.9588C248.091 64.2648 247.736 63.6317 247.223 63.1403C246.768 62.7437 246.234 62.4474 245.657 62.2707C245.589 62.2548 245.522 62.239 245.45 62.227C245.42 62.2185 245.39 62.2119 245.359 62.2072C244.873 62.1226 244.375 62.1395 243.896 62.257C243.417 62.3744 242.967 62.5899 242.575 62.8897C242.183 63.1895 241.858 63.5673 241.619 63.9992C241.38 64.4311 241.232 64.9079 241.186 65.3995L240.266 71.1608L238.858 79.9835C239.029 80.059 239.203 80.1344 239.378 80.2059C239.731 80.3528 240.088 80.4957 240.448 80.6347C241.143 80.9047 241.853 81.1509 242.567 81.3811C243.895 81.8127 245.246 82.1732 246.613 82.4611C246.664 82.4691 246.716 82.481 246.767 82.4929C247.148 82.5723 247.533 82.6477 247.918 82.7192L249.841 72.1694L249.326 69.8426Z" fill="#2F2E41"/>
<path d="M252.31 55.4777C256.884 55.4777 260.592 51.7661 260.592 47.1876C260.592 42.6092 256.884 38.8976 252.31 38.8976C247.736 38.8976 244.028 42.6092 244.028 47.1876C244.028 51.7661 247.736 55.4777 252.31 55.4777Z" fill="#FFB7B7"/>
<path d="M261.261 74.933L259.492 60.9724L259.119 58.0143H259.115L258.949 58.0103C258.386 57.9905 257.838 57.9865 257.299 58.0063C253.988 58.0204 250.741 58.9197 247.894 60.611C247.149 61.0661 246.438 61.5757 245.768 62.1357L245.736 62.1675L245.657 62.2707L242.844 65.8919L242.841 65.9634L242.567 81.3812C243.895 81.8127 245.246 82.1732 246.613 82.4612C246.664 82.4691 246.716 82.481 246.767 82.493C247.148 82.5724 247.533 82.6478 247.918 82.7193C248.727 82.8662 249.541 82.988 250.361 83.0846C254.321 83.5595 258.328 83.466 262.261 82.8066L261.261 74.933Z" fill="#6E2AC3"/>
<path d="M264.157 61.0637C262.854 59.5254 261.085 58.4548 259.119 58.0143H259.115C258.591 57.8961 258.057 57.8257 257.521 57.8038L257.382 57.7999L257.299 58.0063L250.635 74.0872L249.56 69.791L247.894 60.611L247.882 60.5435L247.632 60.6905C246.86 61.1356 246.13 61.6499 245.45 62.2271C242.747 64.5116 240.944 67.6837 240.361 71.1768C240.191 72.2118 240.129 73.2617 240.175 74.3096L240.448 80.6347C241.143 80.9047 241.853 81.1509 242.567 81.3812C243.895 81.8127 245.246 82.1732 246.613 82.4612C246.664 82.4691 246.716 82.481 246.767 82.4929C247.148 82.5723 247.533 82.6478 247.918 82.7193C248.727 82.8662 249.541 82.9879 250.361 83.0846C254.321 83.5595 258.328 83.4659 262.261 82.8066C262.983 82.6915 263.698 82.5538 264.407 82.3937C264.688 82.3301 264.974 82.2666 265.252 82.1951L264.652 80.4282L266.239 68.1631C266.401 66.8999 266.3 65.6167 265.942 64.3947C265.583 63.1727 264.975 62.0385 264.157 61.0637Z" fill="#2F2E41"/>
<path d="M266.124 61.4051C265.841 60.5311 265.231 59.8002 264.423 59.3646C263.615 58.929 262.67 58.8222 261.785 59.0665C261.642 59.1032 261.501 59.1496 261.364 59.2054C260.706 59.4739 260.144 59.9328 259.748 60.5235C259.352 61.1142 259.142 61.8097 259.143 62.5209L259.159 69.9419L261.261 74.9329L264.407 82.3937C264.688 82.3301 264.974 82.2666 265.252 82.1951C267.222 81.7183 269.154 81.0931 271.031 80.325C271.558 80.1145 272.082 79.8882 272.598 79.6539C272.808 79.5587 273.018 79.4634 273.228 79.3601L266.124 61.4051Z" fill="#2F2E41"/>
<path d="M251.753 37.3792H250.064C247.694 37.38 245.422 38.3228 243.747 40.0004C242.072 41.678 241.131 43.9529 241.131 46.3249V46.4916H253.09L253.213 44.7724L253.824 46.4916H255.664L255.91 43.0849L257.124 46.4916H260.686V46.3249C260.684 43.9537 259.742 41.6802 258.068 40.0031C256.393 38.326 254.122 37.3824 251.753 37.3792Z" fill="#2F2E41"/>
<path d="M248.124 189.746C246.729 189.646 245.328 189.827 244.003 190.276C242.679 190.726 241.457 191.436 240.411 192.365C239.364 193.294 238.514 194.422 237.909 195.685C237.305 196.947 236.958 198.318 236.89 199.717L236.228 211.354C236.649 211.573 237.069 211.783 237.497 211.982C237.7 212.077 237.902 212.172 238.104 212.264C238.374 212.387 238.644 212.51 238.917 212.625C239.068 212.692 239.223 212.76 239.377 212.823C239.877 213.03 240.381 213.228 240.889 213.419C242.375 213.972 243.893 214.436 245.434 214.809C245.823 214.908 246.216 214.995 246.612 215.079C246.652 215.087 246.696 215.095 246.735 215.103C246.981 215.154 247.227 215.206 247.473 215.253L248.314 189.758L248.124 189.746Z" fill="#2F2E41"/>
<path d="M258.869 215.853C259.484 215.801 260.095 215.738 260.702 215.659C260.773 215.651 260.849 215.639 260.92 215.627C261.364 215.567 261.809 215.504 262.249 215.424C262.285 214.348 262.273 213.574 262.273 213.479L264.244 192.915L260.135 190.517L259.333 190.048L246.91 189.647L246.807 189.735L240.841 194.912L238.917 212.625C239.068 212.693 239.223 212.76 239.378 212.824C239.877 213.03 240.381 213.229 240.889 213.419C242.375 213.972 243.893 214.436 245.435 214.809C245.823 214.908 246.216 214.995 246.613 215.079C246.652 215.087 246.696 215.095 246.736 215.103C246.982 215.154 247.227 215.206 247.473 215.254C247.969 215.349 248.473 215.436 248.977 215.512C249.433 215.583 249.897 215.647 250.361 215.702C251.123 215.798 251.892 215.865 252.666 215.917C253.554 215.972 254.449 216 255.351 216C255.994 216 256.628 215.984 257.263 215.956C257.731 215.936 258.195 215.909 258.655 215.869L258.869 215.853Z" fill="#2F2E41"/>
<path d="M267.18 194.686L260.143 190.382L260.135 190.517L258.87 215.853C259.484 215.801 260.095 215.738 260.702 215.659C260.774 215.651 260.849 215.639 260.92 215.627C261.365 215.567 261.809 215.504 262.249 215.424C264.577 215.044 266.866 214.46 269.091 213.677C269.163 213.653 269.234 213.63 269.302 213.602L269.801 199.395C269.836 198.445 269.61 197.504 269.148 196.674C268.686 195.844 268.005 195.156 267.18 194.686Z" fill="#2F2E41"/>
<path d="M251.734 186.905C256.556 186.905 260.464 182.993 260.464 178.166C260.464 173.34 256.556 169.428 251.734 169.428C246.913 169.428 243.004 173.34 243.004 178.166C243.004 182.993 246.913 186.905 251.734 186.905Z" fill="#9F616A"/>
<path d="M248.578 165.263C257.369 162.726 259.865 170.02 259.865 170.02C264.103 172.834 261.45 176.363 261.45 176.363C262.519 176.601 260.381 182.864 259.668 182.706C259.288 182.621 258.309 183.79 257.48 184.899C257.195 184.898 256.911 184.926 256.632 184.98L258.242 179.019C258.242 179.019 252.816 178.187 251.153 175.571C249.561 173.067 244.322 172.277 242.831 173.949C242.742 173.468 242.562 173.009 242.299 172.598C242.095 172.285 241.829 172.018 241.517 171.813C242.835 166.205 248.578 165.263 248.578 165.263Z" fill="#2F2E41"/>
<path opacity="0.2" d="M258.655 215.869C258.195 215.909 257.731 215.936 257.263 215.956L258.484 209.238V209.703L258.655 215.869Z" fill="black"/>
</svg>
